<?xml version="1.0" standalone="yes"?>
<svg xmlns="http://www.w3.org/2000/svg" width="21" height="20">
<path style="fill:#000000; stroke:none;" d="M0 0L0 5C2.13569 3.45108 3.45108 2.13568 5 0L0 0z"/>
<path style="fill:#ff5656; stroke:none;" d="M5.01929 1.02778C-7.62625 7.63654 4.60845 25.9522 16.811 18.6821C28.1574 11.922 16.6687 -5.06036 5.01929 1.02778z"/>
<path style="fill:#ff0000; stroke:none;" d="M16 0L17 1L16 0z"/>
<path style="fill:#000000; stroke:none;" d="M17 0C17.8399 1.86135 18.7982 3.33397 20 5C20.7789 3.23096 20.9124 1.96406 21 0L17 0M18 6C14.8538 9.75732 12.9668 13.9365 9 17L5 8C7.20143 9.11085 8.99957 10.5415 11 12L16 3C14.0568 2.64481 11.9881 2.08475 9.99614 2.3179C8.64719 2.47579 7.19708 2.88918 6.1088 3.74306C-5.67656 12.9899 14.6128 24.6573 18.3071 11.9614C18.9091 9.89271 18.4356 8.02975 18 6z"/>
<path style="fill:#ff0000; stroke:none;" d="M4 4L5 5L4 4z"/>
<path style="fill:#000000; stroke:none;" d="M0 15L0 20L5 20C3.46848 18.0487 1.9513 16.5315 0 15M20 15L16 19C17.769 19.7789 19.0359 19.9124 21 20C20.9124 18.0359 20.7789 16.769 20 15z"/>
</svg>
